<mxfile host="app.diagrams.net" modified="2023-10-24T10:56:48.885Z" agent="Mozilla/5.0 (Macintosh; Intel Mac OS X 10_15_7) AppleWebKit/537.36 (KHTML, like Gecko) Chrome/118.0.0.0 Safari/537.36" etag="-sku5IrSVJPr42JIj7Sm" version="22.0.6" type="github">
  <diagram name="Page-1" id="xNjw1yalNfvpvAXhLcQQ">
    <mxGraphModel dx="714" dy="737" grid="1" gridSize="10" guides="1" tooltips="1" connect="1" arrows="1" fold="1" page="1" pageScale="1" pageWidth="850" pageHeight="1100" math="0" shadow="0">
      <root>
        <mxCell id="0" />
        <mxCell id="1" parent="0" />
        <mxCell id="BfpJ8nS28u2EYpjjWt1W-1" value="YAML-файл" style="rounded=0;whiteSpace=wrap;html=1;" vertex="1" parent="1">
          <mxGeometry x="430" y="180" width="120" height="60" as="geometry" />
        </mxCell>
        <mxCell id="BfpJ8nS28u2EYpjjWt1W-2" value="Генератор iOS" style="rounded=0;whiteSpace=wrap;html=1;" vertex="1" parent="1">
          <mxGeometry x="140" y="330" width="120" height="60" as="geometry" />
        </mxCell>
        <mxCell id="BfpJ8nS28u2EYpjjWt1W-3" value="Генератор Android" style="rounded=0;whiteSpace=wrap;html=1;" vertex="1" parent="1">
          <mxGeometry x="340" y="330" width="120" height="60" as="geometry" />
        </mxCell>
        <mxCell id="BfpJ8nS28u2EYpjjWt1W-4" value="Генератор frontend" style="rounded=0;whiteSpace=wrap;html=1;" vertex="1" parent="1">
          <mxGeometry x="530" y="330" width="120" height="60" as="geometry" />
        </mxCell>
        <mxCell id="BfpJ8nS28u2EYpjjWt1W-5" value="Генератор витрины" style="rounded=0;whiteSpace=wrap;html=1;" vertex="1" parent="1">
          <mxGeometry x="730" y="330" width="120" height="60" as="geometry" />
        </mxCell>
        <mxCell id="BfpJ8nS28u2EYpjjWt1W-6" value="XCFramework" style="rounded=0;whiteSpace=wrap;html=1;" vertex="1" parent="1">
          <mxGeometry x="110" y="490" width="120" height="60" as="geometry" />
        </mxCell>
        <mxCell id="BfpJ8nS28u2EYpjjWt1W-7" value="JAR" style="rounded=0;whiteSpace=wrap;html=1;" vertex="1" parent="1">
          <mxGeometry x="350" y="490" width="120" height="60" as="geometry" />
        </mxCell>
        <mxCell id="BfpJ8nS28u2EYpjjWt1W-8" value="Новая версия витрины" style="rounded=0;whiteSpace=wrap;html=1;" vertex="1" parent="1">
          <mxGeometry x="730" y="490" width="120" height="60" as="geometry" />
        </mxCell>
        <mxCell id="BfpJ8nS28u2EYpjjWt1W-9" value="TS библиотека" style="rounded=0;whiteSpace=wrap;html=1;" vertex="1" parent="1">
          <mxGeometry x="530" y="490" width="120" height="60" as="geometry" />
        </mxCell>
      </root>
    </mxGraphModel>
  </diagram>
</mxfile>
